<?xml version="1.0" encoding="utf-8"?>
<!-- Generator: Adobe Illustrator 16.0.0, SVG Export Plug-In . SVG Version: 6.00 Build 0)  -->
<!DOCTYPE svg PUBLIC "-//W3C//DTD SVG 1.1//EN" "http://www.w3.org/Graphics/SVG/1.1/DTD/svg11.dtd">
<svg version="1.1" id="Layer_1" xmlns="http://www.w3.org/2000/svg" xmlns:xlink="http://www.w3.org/1999/xlink" x="0px" y="0px"
	 width="151.118px" height="151.118px" viewBox="0 0 151.118 151.118" enable-background="new 0 0 151.118 151.118"
	 xml:space="preserve">
<circle fill="#FFFFFF" stroke="#000000" stroke-width="3" cx="75.559" cy="75.56" r="71.208"/>
<g>
	<g>
		<path fill="#00B3E6" stroke="#000000" d="M79.393,18.702c-1.27-0.085-2.543-0.143-3.833-0.143c-6.136,0-12.04,0.98-17.578,2.774
			c0.458,1.249,0.721,2.592,0.721,4c0,6.429-5.211,11.64-11.64,11.64c-3.645,0-6.895-1.678-9.029-4.3
			c-3.313,2.902-6.285,6.18-8.853,9.771h50.212V18.702z M103.104,25.654v16.79h18.835C117,35.541,110.568,29.783,103.104,25.654z
			 M125.401,47.905h-22.298v46.557c0,0-1.151,11.496,11.495,11.496h9.169c5.562-8.801,8.792-19.22,8.792-30.397
			C132.56,65.522,129.956,56.097,125.401,47.905z M79.393,94.461c0,0,0-23.276,0-34.917s-11.639-11.64-11.639-11.64h-7.759v46.557
			c0,11.641,11.639,11.641,11.639,11.641v7.688H33.283c10.43,11.526,25.507,18.771,42.276,18.771
			c16.77,0,31.846-7.244,42.275-18.771h-3.236C114.599,113.788,79.393,115.814,79.393,94.461z M36.717,59.545
			c0-10.017-8.614-11.412-11.018-11.606c-4.544,8.184-7.14,17.597-7.14,27.621c0,11.17,3.226,21.58,8.777,30.376
			c9.374-1.402,9.38-11.475,9.38-11.475S36.717,71.185,36.717,59.545z"/>
	</g>
	<g>
		<path fill="#00B3E6" stroke="#000000" stroke-width="3" d="M79.393,18.702c-1.27-0.085-2.543-0.143-3.833-0.143
			c-6.136,0-12.04,0.98-17.578,2.774c0.458,1.249,0.721,2.592,0.721,4c0,6.429-5.211,11.64-11.64,11.64
			c-3.645,0-6.895-1.678-9.029-4.3c-3.313,2.902-6.285,6.18-8.853,9.771h50.212V18.702z M103.104,25.654v16.79h18.835
			C117,35.541,110.568,29.783,103.104,25.654z M125.401,47.905h-22.298v46.557c0,0-1.151,11.496,11.495,11.496h9.169
			c5.562-8.801,8.792-19.22,8.792-30.397C132.56,65.522,129.956,56.097,125.401,47.905z M79.393,94.461c0,0,0-23.276,0-34.917
			s-11.639-11.64-11.639-11.64h-7.759v46.557c0,11.641,11.639,11.641,11.639,11.641v7.688H33.283
			c10.43,11.526,25.507,18.771,42.276,18.771c16.77,0,31.846-7.244,42.275-18.771h-3.236
			C114.599,113.788,79.393,115.814,79.393,94.461z M36.717,59.545c0-10.017-8.614-11.412-11.018-11.606
			c-4.544,8.184-7.14,17.597-7.14,27.621c0,11.17,3.226,21.58,8.777,30.376c9.374-1.402,9.38-11.475,9.38-11.475
			S36.717,71.185,36.717,59.545z"/>
	</g>
</g>
<g>
	<path d="M8.724,80.924l1.055-0.127l0.217,1.832l5.027-0.598l0.151,1.272l-5.027,0.597l0.217,1.831L9.31,85.857L8.724,80.924z"/>
	<path d="M9.61,74.781l0.074,3.155l1.296-0.029l-0.067-2.891l1.062-0.024l0.067,2.889l1.578-0.036l-0.077-3.312l1.093-0.025
		l0.107,4.562l-6.124,0.144l-0.103-4.405L9.61,74.781z"/>
	<path d="M8.573,72.581l0.099-1.246l2.519,0.201L8.86,68.973l0.131-1.645l2.312,2.705l3.804-2.348l-0.13,1.637l-2.817,1.67
		l0.576,0.666l2.042,0.163l-0.099,1.246L8.573,72.581z"/>
	<path d="M9.257,65.512l0.247-1.311l4.612-1.558l-4.17-0.786l0.22-1.167l6.019,1.134l-0.235,1.251l-4.699,1.603l4.245,0.8
		l-0.22,1.167L9.257,65.512z"/>
	<path d="M17.4,55.628c0.32,0.581,0.351,1.289,0.095,2.124c-0.256,0.835-0.679,1.404-1.269,1.706
		c-0.739,0.421-1.633,0.471-2.683,0.149c-1.071-0.328-1.783-0.87-2.139-1.626c-0.319-0.581-0.351-1.289-0.095-2.124
		s0.679-1.404,1.269-1.706c0.717-0.425,1.611-0.474,2.682-0.146C16.31,54.327,17.023,54.868,17.4,55.628z M16.27,56.118
		c-0.268-0.392-0.729-0.688-1.384-0.888c-0.652-0.2-1.2-0.213-1.643-0.039c-0.443,0.173-0.738,0.501-0.885,0.982
		s-0.087,0.92,0.179,1.315c0.267,0.395,0.728,0.693,1.383,0.894c0.654,0.2,1.203,0.212,1.646,0.034
		c0.442-0.178,0.738-0.507,0.885-0.989C16.598,56.946,16.538,56.51,16.27,56.118z"/>
	<path d="M13.063,51.3l0.5-1.18l4.633,1.962l1.182-2.791l1.007,0.426l-1.682,3.971L13.063,51.3z"/>
	<path d="M22.694,44.202c0.194,0.634,0.081,1.333-0.341,2.099c-0.421,0.765-0.951,1.236-1.59,1.411
		c-0.81,0.262-1.695,0.128-2.657-0.401c-0.981-0.54-1.568-1.216-1.761-2.029c-0.194-0.633-0.081-1.333,0.34-2.098
		c0.421-0.766,0.951-1.236,1.59-1.412c0.789-0.27,1.673-0.134,2.654,0.405C21.893,42.706,22.48,43.381,22.694,44.202z
		 M21.487,44.451c-0.183-0.438-0.574-0.822-1.174-1.152c-0.598-0.329-1.131-0.453-1.6-0.374c-0.469,0.08-0.825,0.34-1.067,0.781
		c-0.243,0.441-0.273,0.882-0.093,1.324c0.181,0.442,0.571,0.828,1.171,1.158s1.135,0.453,1.604,0.369
		c0.469-0.084,0.826-0.346,1.068-0.787C21.64,45.329,21.67,44.889,21.487,44.451z"/>
	<path d="M23.325,36.713c-0.397-0.163-0.773-0.14-1.126,0.071c-0.196,0.119-0.368,0.282-0.517,0.492
		c-0.284,0.401-0.366,0.838-0.247,1.31c0.119,0.472,0.482,0.922,1.089,1.352c0.611,0.433,1.142,0.599,1.594,0.5
		c0.452-0.099,0.803-0.328,1.056-0.684c0.247-0.349,0.35-0.706,0.308-1.07c-0.042-0.364-0.206-0.687-0.493-0.968l-0.824,1.164
		l-0.829-0.587l1.472-2.079l2.678,1.896l-0.488,0.688l-0.692-0.347c0.094,0.369,0.132,0.667,0.116,0.896
		c-0.027,0.395-0.182,0.793-0.466,1.195c-0.469,0.662-1.081,1.042-1.837,1.141c-0.771,0.115-1.556-0.11-2.353-0.675
		c-0.807-0.571-1.296-1.251-1.468-2.04c-0.172-0.789,0-1.548,0.518-2.279c0.448-0.633,0.969-1.028,1.562-1.186
		c0.593-0.158,1.15-0.094,1.669,0.189L23.325,36.713z"/>
	<path d="M27.742,34.873c0.234,0.155,0.441,0.236,0.62,0.241c0.326,0.01,0.656-0.175,0.992-0.554
		c0.201-0.227,0.339-0.434,0.415-0.619c0.143-0.353,0.085-0.643-0.172-0.871c-0.151-0.133-0.326-0.17-0.525-0.111
		c-0.197,0.061-0.453,0.208-0.768,0.439l-0.541,0.394c-0.532,0.386-0.943,0.616-1.233,0.69c-0.489,0.128-0.957-0.006-1.406-0.402
		c-0.409-0.361-0.616-0.813-0.62-1.354s0.251-1.103,0.768-1.688c0.431-0.488,0.927-0.791,1.487-0.909
		c0.561-0.118,1.092,0.029,1.594,0.443l-0.817,0.925c-0.291-0.227-0.594-0.277-0.911-0.152c-0.211,0.084-0.416,0.238-0.615,0.463
		c-0.221,0.251-0.348,0.495-0.381,0.732c-0.033,0.237,0.04,0.435,0.218,0.591c0.164,0.145,0.351,0.179,0.562,0.103
		c0.137-0.047,0.378-0.193,0.723-0.438l0.894-0.632c0.392-0.277,0.734-0.442,1.028-0.496c0.456-0.083,0.888,0.056,1.295,0.416
		c0.418,0.369,0.623,0.837,0.614,1.403c-0.009,0.566-0.273,1.143-0.792,1.731c-0.531,0.601-1.085,0.953-1.662,1.056
		c-0.577,0.103-1.104-0.056-1.581-0.478L27.742,34.873z"/>
	<path d="M32.433,25.651l-2.314,2.146L31,28.748l2.12-1.965l0.722,0.779l-2.12,1.965l1.073,1.157l2.429-2.252l0.744,0.802
		l-3.346,3.102l-4.164-4.492l3.231-2.996L32.433,25.651z"/>
	<path d="M33.397,23.413l1-0.75l1.518,2.021l0.377-3.443l1.319-0.991l-0.497,3.523l4.278,1.297l-1.313,0.986l-3.117-1.006
		l-0.118,0.873l1.23,1.638l-1,0.75L33.397,23.413z"/>
	<path d="M42.951,16.963l0.55,0.909l-1.577,0.956l2.623,4.33l-1.096,0.664l-2.623-4.33l-1.577,0.956L38.7,19.539L42.951,16.963z"/>
	<path d="M48.265,21.134l-1.14,0.585l-2.797-5.449l1.14-0.585L48.265,21.134z"/>
	<path d="M53.806,18.069c-0.244,0.616-0.769,1.092-1.575,1.428c-0.807,0.335-1.515,0.373-2.123,0.111
		c-0.796-0.3-1.405-0.958-1.826-1.971c-0.43-1.034-0.467-1.928-0.111-2.685c0.244-0.616,0.769-1.092,1.575-1.428
		s1.514-0.373,2.123-0.111c0.785,0.282,1.392,0.939,1.822,1.973C54.113,16.399,54.151,17.294,53.806,18.069z M52.707,17.511
		c0.13-0.456,0.064-1-0.199-1.633c-0.262-0.629-0.601-1.06-1.017-1.29c-0.417-0.23-0.857-0.249-1.322-0.055
		c-0.465,0.194-0.764,0.519-0.898,0.977s-0.069,1.003,0.193,1.635c0.263,0.632,0.604,1.062,1.024,1.29
		c0.42,0.228,0.861,0.245,1.326,0.051C52.279,18.292,52.577,17.967,52.707,17.511z"/>
	<path d="M54.397,11.942l1.28-0.375l3.48,3.403l-1.191-4.073l1.14-0.333l1.72,5.878L59.604,16.8l-3.561-3.459l1.213,4.146
		l-1.14,0.333L54.397,11.942z"/>
	<path d="M65.833,10.335l-3.104,0.573l0.235,1.275l2.843-0.525L66,12.703l-2.843,0.524l0.287,1.552l3.257-0.602l0.199,1.076
		l-4.487,0.828l-1.112-6.023l4.333-0.8L65.833,10.335z"/>
	<path d="M67.808,8.965l1.33-0.107l2.718,4.039l-0.341-4.23l1.184-0.095l0.492,6.105l-1.269,0.102l-2.785-4.109l0.347,4.306
		L68.3,15.07L67.808,8.965z"/>
	<path d="M78.854,14.759l-1.279-0.055l0.262-6.119l1.279,0.055L78.854,14.759z"/>
	<path d="M81.168,8.739l1.324,0.159l1.862,4.497l0.505-4.213l1.18,0.141l-0.729,6.082l-1.265-0.151l-1.914-4.581l-0.514,4.289
		l-1.18-0.141L81.168,8.739z"/>
	<path d="M88.194,9.732l4.24,0.942l-0.23,1.037l-2.988-0.665l-0.31,1.388l2.623,0.583l-0.229,1.037l-2.623-0.583l-0.557,2.501
		l-1.252-0.278L88.194,9.732z"/>
	<path d="M96.917,17.911c-0.588,0.305-1.297,0.318-2.125,0.042c-0.828-0.276-1.388-0.713-1.674-1.311
		c-0.402-0.75-0.431-1.645-0.082-2.686c0.354-1.062,0.914-1.761,1.678-2.097c0.59-0.305,1.298-0.319,2.127-0.042
		c0.828,0.276,1.387,0.713,1.674,1.311c0.406,0.728,0.434,1.623,0.079,2.685C98.245,16.854,97.687,17.553,96.917,17.911z
		 M96.456,16.769c0.396-0.258,0.705-0.712,0.922-1.362c0.215-0.647,0.242-1.194,0.08-1.641c-0.162-0.447-0.482-0.75-0.961-0.91
		c-0.478-0.159-0.916-0.11-1.318,0.147c-0.401,0.257-0.711,0.71-0.928,1.36c-0.217,0.65-0.242,1.198-0.076,1.645
		c0.168,0.447,0.49,0.75,0.968,0.91S96.057,17.027,96.456,16.769z"/>
	<path d="M104.888,15.472c0.164,0.182,0.276,0.392,0.341,0.628c0.053,0.195,0.074,0.394,0.064,0.596
		c-0.012,0.202-0.066,0.413-0.168,0.631c-0.121,0.264-0.309,0.492-0.559,0.685c-0.251,0.193-0.554,0.272-0.908,0.236
		c0.207,0.222,0.32,0.452,0.34,0.691c0.019,0.239-0.062,0.554-0.242,0.945l-0.174,0.374c-0.117,0.254-0.188,0.432-0.209,0.532
		c-0.037,0.158-0.016,0.296,0.063,0.415l-0.063,0.14l-1.274-0.588c0.022-0.14,0.044-0.25,0.063-0.333
		c0.043-0.17,0.101-0.337,0.174-0.502l0.23-0.521c0.159-0.357,0.208-0.623,0.145-0.796c-0.062-0.173-0.258-0.334-0.582-0.484
		l-1.137-0.526l-1.01,2.185l-1.135-0.524l2.568-5.56l2.658,1.229C104.454,15.106,104.724,15.289,104.888,15.472z M102.106,15.184
		l-0.688,1.489l1.252,0.578c0.248,0.115,0.449,0.171,0.602,0.168c0.27-0.003,0.475-0.161,0.618-0.472
		c0.155-0.336,0.153-0.611-0.007-0.825c-0.09-0.121-0.254-0.236-0.492-0.346L102.106,15.184z"/>
	<path d="M111.327,18.894l1.566,0.953l-3.18,5.235l-1.014-0.616l2.149-3.541c0.062-0.102,0.149-0.244,0.263-0.426
		c0.114-0.182,0.201-0.323,0.262-0.422l-3.656,3.792l-1.062-0.644l1.687-4.99c-0.062,0.1-0.146,0.242-0.256,0.427
		c-0.107,0.185-0.193,0.328-0.256,0.43l-2.149,3.541l-1.015-0.616l3.179-5.235l1.586,0.963l-1.55,4.693L111.327,18.894z"/>
	<path d="M116.072,22.188l1.153,0.892l-2.041,6.165l-1.096-0.847l0.449-1.233l-1.783-1.379l-1.09,0.737l-1.065-0.825L116.072,22.188
		z M113.683,25.16l1.237,0.957l0.865-2.379L113.683,25.16z"/>
	<path d="M123.066,28.23l-0.724,0.778l-1.352-1.255l-3.445,3.708l-0.938-0.872l3.446-3.708l-1.352-1.255l0.725-0.778L123.066,28.23z
		"/>
	<path d="M120.504,34.474l-0.875-0.936l4.475-4.182l0.875,0.936L120.504,34.474z"/>
	<path d="M125.021,39.041c-0.66-0.067-1.261-0.443-1.804-1.128c-0.541-0.685-0.77-1.356-0.684-2.013
		c0.073-0.848,0.541-1.612,1.401-2.293c0.878-0.695,1.729-0.973,2.553-0.836c0.659,0.067,1.261,0.443,1.804,1.128
		c0.541,0.685,0.77,1.356,0.684,2.013c-0.059,0.832-0.525,1.595-1.403,2.29C126.709,38.882,125.86,39.162,125.021,39.041z
		 M125.258,37.832c0.476,0.001,0.98-0.21,1.519-0.635c0.534-0.423,0.856-0.866,0.966-1.329c0.107-0.463,0.006-0.892-0.307-1.287
		s-0.707-0.595-1.186-0.6c-0.477-0.005-0.982,0.206-1.521,0.63c-0.538,0.424-0.858,0.87-0.963,1.335
		c-0.104,0.465-0.002,0.896,0.312,1.29C124.391,37.632,124.784,37.83,125.258,37.832z"/>
	<path d="M131.081,37.952l0.705,1.131l-2.334,4.271l3.6-2.249l0.629,1.007l-5.194,3.246l-0.674-1.079l2.367-4.364l-3.664,2.29
		l-0.629-1.007L131.081,37.952z"/>
	<path d="M131.352,46.758c-0.232,0.158-0.387,0.318-0.46,0.481c-0.134,0.297-0.089,0.673,0.135,1.128
		c0.134,0.272,0.271,0.479,0.414,0.62c0.271,0.266,0.562,0.324,0.87,0.172c0.182-0.088,0.281-0.236,0.303-0.443
		c0.02-0.206-0.019-0.498-0.113-0.877l-0.156-0.65c-0.154-0.639-0.211-1.106-0.168-1.403c0.066-0.5,0.369-0.882,0.908-1.146
		c0.49-0.24,0.985-0.259,1.486-0.057c0.502,0.202,0.924,0.653,1.268,1.354c0.287,0.584,0.377,1.158,0.272,1.722
		c-0.104,0.563-0.442,0.998-1.019,1.304l-0.543-1.108c0.32-0.182,0.484-0.443,0.49-0.784c0.002-0.227-0.062-0.475-0.194-0.745
		c-0.147-0.3-0.324-0.511-0.531-0.631c-0.207-0.121-0.417-0.129-0.63-0.025c-0.195,0.096-0.299,0.256-0.309,0.48
		c-0.01,0.146,0.033,0.424,0.129,0.835l0.242,1.067c0.106,0.468,0.129,0.848,0.065,1.14c-0.099,0.453-0.39,0.8-0.878,1.039
		c-0.501,0.245-1.012,0.256-1.531,0.032c-0.521-0.224-0.953-0.688-1.298-1.393c-0.353-0.72-0.467-1.366-0.342-1.938
		c0.124-0.573,0.473-0.999,1.044-1.279L131.352,46.758z"/>
	<path d="M139.122,54.22l-0.994,0.375l-0.651-1.725l-4.736,1.787l-0.452-1.199l4.736-1.787l-0.65-1.725l0.994-0.375L139.122,54.22z"
		/>
	<path d="M139.737,60.395l-0.83-3.045l-1.251,0.341l0.761,2.789l-1.025,0.279l-0.76-2.789l-1.522,0.415l0.871,3.196l-1.056,0.288
		l-1.199-4.402l5.908-1.611l1.158,4.251L139.737,60.395z"/>
	<path d="M141.273,62.279l0.204,1.233l-2.493,0.413l2.881,1.925l0.271,1.627l-2.896-2.068l-3.126,3.195l-0.268-1.62l2.331-2.3
		l-0.721-0.507l-2.021,0.334l-0.204-1.233L141.273,62.279z"/>
	<path d="M142.313,69.3l0.077,1.331l-4.099,2.627l4.236-0.246l0.069,1.185l-6.114,0.356l-0.074-1.271l4.172-2.693l-4.313,0.251
		l-0.067-1.186L142.313,69.3z"/>
	<path d="M136.42,77.345l0.022-1.281l6.124,0.11l-0.023,1.281L136.42,77.345z"/>
	<path d="M142.495,79.542l-0.119,1.244l-2.516-0.238l2.293,2.598l-0.156,1.643l-2.271-2.738l-3.839,2.289l0.154-1.635l2.842-1.627
		l-0.565-0.675l-2.04-0.192l0.118-1.244L142.495,79.542z"/>
</g>
<rect x="13.962" y="14.947" fill="none" width="121.094" height="121.095"/>
<g>
	<path d="M14.433,92.2c-0.122,0.209-0.31,0.348-0.566,0.416c-0.256,0.065-0.49,0.038-0.702-0.084
		c-0.212-0.123-0.351-0.312-0.418-0.568s-0.039-0.488,0.085-0.699s0.315-0.35,0.571-0.417c0.256-0.067,0.488-0.039,0.697,0.084
		c0.209,0.124,0.348,0.313,0.415,0.569C14.583,91.756,14.555,91.989,14.433,92.2z"/>
	<path d="M17.734,96.76c0.649,0.271,1.115,0.759,1.398,1.464c0.377,0.942,0.34,1.76-0.112,2.446
		c-0.256,0.383-0.558,0.654-0.905,0.812l-0.476-1.189c0.242-0.184,0.409-0.361,0.5-0.535c0.163-0.309,0.161-0.67-0.004-1.082
		c-0.168-0.42-0.475-0.684-0.92-0.786c-0.445-0.103-0.985-0.027-1.621,0.228c-0.636,0.254-1.062,0.572-1.276,0.954
		c-0.215,0.382-0.244,0.771-0.086,1.162c0.162,0.403,0.421,0.655,0.78,0.759c0.194,0.057,0.454,0.065,0.779,0.024l0.476,1.188
		c-0.659,0.146-1.265,0.088-1.819-0.174c-0.554-0.263-0.962-0.72-1.223-1.371c-0.323-0.807-0.315-1.545,0.023-2.216
		c0.341-0.672,0.969-1.19,1.884-1.558C16.121,96.493,16.988,96.45,17.734,96.76z"/>
	<path d="M15.157,104.76l5.418-2.856l0.597,1.134l-2.059,1.086l1.093,2.073l2.06-1.086l0.598,1.134l-5.418,2.855l-0.598-1.133
		l2.419-1.275l-1.093-2.072l-2.418,1.274L15.157,104.76z"/>
	<path d="M24.609,108.986l0.812,1.211l-3.888,5.201l-0.771-1.149l0.816-1.027l-1.254-1.872l-1.268,0.354l-0.75-1.121L24.609,108.986
		z M21.401,111.047l0.871,1.301l1.575-1.982L21.401,111.047z"/>
	<path d="M27.297,112.821l0.813,0.989l-3.886,3.194l1.925,2.343l-0.845,0.694l-2.739-3.332L27.297,112.821z"/>
	<path d="M33.701,119.881l1.308,1.287l-4.295,4.365l-0.847-0.832l2.905-2.953c0.083-0.086,0.201-0.203,0.354-0.354
		c0.152-0.151,0.27-0.269,0.351-0.353l-4.43,2.854l-0.885-0.87l2.786-4.471c-0.082,0.083-0.197,0.202-0.346,0.356
		c-0.149,0.155-0.265,0.274-0.348,0.359l-2.905,2.953l-0.846-0.832l4.295-4.366l1.323,1.302l-2.584,4.213L33.701,119.881z"/>
	<path d="M38.937,125.708l-2.477-1.957l-0.804,1.019l2.269,1.792l-0.659,0.834l-2.268-1.792l-0.979,1.237l2.599,2.054l-0.678,0.858
		l-3.58-2.828l3.797-4.807l3.457,2.731L38.937,125.708z"/>
	<path d="M44.062,127.978c0.138,0.203,0.222,0.426,0.253,0.669c0.026,0.2,0.02,0.4-0.018,0.6c-0.038,0.198-0.121,0.399-0.251,0.604
		c-0.156,0.245-0.372,0.445-0.646,0.604c-0.275,0.157-0.585,0.194-0.932,0.11c0.176,0.247,0.257,0.491,0.243,0.729
		c-0.014,0.24-0.137,0.541-0.369,0.903l-0.222,0.349c-0.151,0.234-0.244,0.401-0.279,0.498c-0.057,0.15-0.055,0.291,0.007,0.42
		l-0.083,0.129l-1.183-0.756c0.041-0.135,0.077-0.241,0.108-0.32c0.065-0.163,0.145-0.321,0.24-0.475l0.3-0.484
		c0.206-0.333,0.29-0.59,0.25-0.77c-0.04-0.181-0.209-0.367-0.511-0.56l-1.056-0.675l-1.296,2.027l-1.053-0.674l3.298-5.16
		l2.468,1.578C43.681,127.557,43.924,127.774,44.062,127.978z M41.345,127.314l-0.883,1.383l1.162,0.743
		c0.23,0.146,0.421,0.23,0.573,0.248c0.267,0.032,0.492-0.096,0.677-0.384c0.199-0.312,0.234-0.584,0.105-0.817
		c-0.073-0.132-0.22-0.27-0.441-0.41L41.345,127.314z"/>
	<path d="M45.217,133.312c-0.091,0.267-0.117,0.485-0.078,0.66c0.073,0.317,0.334,0.591,0.786,0.819
		c0.271,0.138,0.505,0.22,0.704,0.246c0.377,0.049,0.644-0.08,0.799-0.387c0.091-0.18,0.083-0.357-0.025-0.535
		c-0.109-0.177-0.315-0.387-0.619-0.634l-0.517-0.424c-0.507-0.417-0.834-0.757-0.979-1.021c-0.247-0.439-0.235-0.928,0.035-1.461
		c0.247-0.488,0.632-0.802,1.154-0.941c0.522-0.141,1.131-0.034,1.826,0.318c0.581,0.295,0.999,0.697,1.254,1.211
		c0.255,0.513,0.246,1.063-0.028,1.652l-1.101-0.559c0.146-0.338,0.119-0.646-0.082-0.92c-0.134-0.184-0.335-0.342-0.604-0.479
		c-0.298-0.15-0.566-0.213-0.804-0.186s-0.411,0.147-0.518,0.359c-0.099,0.194-0.084,0.385,0.042,0.568
		c0.081,0.121,0.282,0.316,0.605,0.59l0.836,0.706c0.367,0.31,0.613,0.601,0.739,0.87c0.195,0.421,0.169,0.873-0.077,1.357
		c-0.252,0.498-0.653,0.812-1.204,0.947c-0.55,0.135-1.175,0.023-1.875-0.332c-0.715-0.361-1.195-0.81-1.44-1.342
		c-0.245-0.531-0.223-1.082,0.064-1.65L45.217,133.312z"/>
	<path d="M58.45,134.226l-0.344,1.005l-1.744-0.598l-1.642,4.787l-1.212-0.414l1.642-4.789l-1.744-0.598l0.345-1.006L58.45,134.226z
		"/>
	<path d="M63.51,136.602l-3.069-0.738l-0.303,1.262l2.811,0.676l-0.249,1.033l-2.811-0.676l-0.369,1.533l3.221,0.773l-0.256,1.063
		l-4.436-1.067l1.433-5.953l4.284,1.029L63.51,136.602z"/>
	<path d="M65.268,135.827l1.238,0.168l-0.338,2.504l2.687-2.188l1.635,0.223l-2.828,2.158l2.135,3.928l-1.627-0.221l-1.513-2.904
		l-0.697,0.539l-0.274,2.029l-1.239-0.168L65.268,135.827z"/>
	<path d="M71.6,136.6l1.333,0.039l2.259,4.312l0.125-4.242l1.188,0.035l-0.18,6.123l-1.272-0.037l-2.317-4.392l-0.127,4.317
		l-1.187-0.034L71.6,136.6z"/>
	<path d="M79.522,142.725l-1.279,0.059l-0.277-6.119l1.279-0.059L79.522,142.725z"/>
	<path d="M82.211,140.633c0.069,0.271,0.17,0.47,0.3,0.593c0.235,0.226,0.604,0.31,1.108,0.249c0.301-0.035,0.541-0.096,0.723-0.184
		c0.341-0.168,0.492-0.422,0.451-0.765c-0.022-0.2-0.129-0.344-0.315-0.433c-0.188-0.088-0.478-0.148-0.865-0.186l-0.666-0.068
		c-0.653-0.066-1.112-0.17-1.379-0.31c-0.448-0.229-0.709-0.643-0.778-1.237c-0.062-0.543,0.084-1.017,0.441-1.422
		c0.357-0.406,0.924-0.654,1.698-0.744c0.646-0.076,1.218,0.029,1.714,0.315s0.793,0.751,0.891,1.394l-1.226,0.145
		c-0.065-0.363-0.257-0.604-0.576-0.723c-0.213-0.078-0.469-0.1-0.769-0.064c-0.332,0.039-0.59,0.137-0.771,0.29
		c-0.184,0.155-0.261,0.351-0.232,0.586c0.024,0.218,0.143,0.367,0.351,0.451c0.134,0.058,0.41,0.108,0.83,0.155l1.087,0.127
		c0.477,0.055,0.843,0.16,1.098,0.316c0.396,0.243,0.623,0.635,0.688,1.174c0.064,0.555-0.096,1.039-0.479,1.455
		c-0.386,0.416-0.968,0.67-1.746,0.76c-0.797,0.094-1.443-0.014-1.941-0.322s-0.784-0.777-0.858-1.41L82.211,140.633z"/>
	<path d="M86.725,135.772l1.221-0.27l0.543,2.469l1.771-2.979l1.611-0.354l-1.914,3l3.355,2.953l-1.604,0.354l-2.42-2.207
		l-0.47,0.745l0.44,2.001l-1.221,0.27L86.725,135.772z"/>
	<path d="M94.597,133.771l1.384-0.459l3.979,5.133l-1.313,0.437l-0.772-1.061l-2.14,0.71l0.004,1.316l-1.28,0.425L94.597,133.771z
		 M95.729,137.413l1.484-0.494l-1.491-2.047L95.729,137.413z"/>
	<path d="M104.025,136.72l-2.748-5.476l1.146-0.574l1.045,2.082l2.095-1.053l-1.044-2.08l1.145-0.574l2.748,5.474l-1.146,0.575
		l-1.228-2.444l-2.095,1.052l1.228,2.443L104.025,136.72z"/>
	<path d="M107.144,126.129l0.918-0.594l0.535,0.827l-0.919,0.595L107.144,126.129z M113.952,130.424
		c-0.129,0.65-0.562,1.212-1.295,1.687c-0.732,0.474-1.423,0.638-2.068,0.488c-0.836-0.154-1.553-0.69-2.148-1.613
		c-0.607-0.94-0.804-1.813-0.588-2.622c0.129-0.648,0.561-1.212,1.294-1.686c0.733-0.475,1.424-0.637,2.069-0.488
		c0.822,0.137,1.537,0.676,2.146,1.615C113.956,128.727,114.153,129.6,113.952,130.424z M108.547,125.223l0.918-0.594l0.535,0.826
		l-0.918,0.594L108.547,125.223z M112.771,130.071c0.047-0.473-0.115-0.996-0.487-1.57c-0.369-0.572-0.779-0.937-1.229-1.088
		c-0.451-0.152-0.888-0.093-1.312,0.182c-0.423,0.273-0.658,0.646-0.709,1.121c-0.051,0.476,0.11,1,0.481,1.574
		c0.372,0.576,0.784,0.938,1.237,1.086s0.892,0.088,1.313-0.187S112.725,130.543,112.771,130.071z"/>
	<path d="M117.1,123.377c-0.342-0.262-0.709-0.338-1.104-0.229c-0.222,0.062-0.432,0.176-0.629,0.337
		c-0.381,0.312-0.576,0.711-0.586,1.198c-0.01,0.486,0.221,1.018,0.692,1.592c0.476,0.579,0.942,0.881,1.403,0.903
		c0.463,0.022,0.861-0.103,1.199-0.38c0.332-0.271,0.524-0.588,0.582-0.95c0.055-0.362-0.018-0.718-0.22-1.063l-1.103,0.903
		l-0.646-0.785l1.97-1.614l2.08,2.537l-0.652,0.535l-0.575-0.518c-0.007,0.38-0.05,0.678-0.125,0.894
		c-0.132,0.374-0.386,0.718-0.767,1.029c-0.627,0.515-1.318,0.719-2.074,0.612c-0.773-0.094-1.471-0.518-2.09-1.272
		c-0.627-0.765-0.92-1.55-0.877-2.354c0.043-0.806,0.412-1.494,1.104-2.062c0.602-0.491,1.208-0.735,1.82-0.729
		c0.615,0.006,1.135,0.215,1.561,0.625L117.1,123.377z"/>
	<path d="M121.618,122.366c0.225,0.168,0.426,0.26,0.604,0.274c0.324,0.028,0.665-0.14,1.021-0.499
		c0.213-0.217,0.361-0.414,0.447-0.596c0.162-0.344,0.12-0.637-0.124-0.879c-0.144-0.142-0.315-0.188-0.519-0.14
		c-0.2,0.05-0.465,0.183-0.791,0.396l-0.562,0.363c-0.553,0.356-0.976,0.564-1.271,0.623c-0.494,0.102-0.954-0.06-1.381-0.479
		c-0.39-0.384-0.57-0.847-0.545-1.386c0.024-0.541,0.312-1.088,0.858-1.644c0.457-0.464,0.97-0.739,1.534-0.825
		c0.566-0.089,1.089,0.088,1.566,0.528l-0.867,0.879c-0.276-0.241-0.577-0.31-0.9-0.202c-0.215,0.072-0.428,0.215-0.641,0.43
		c-0.233,0.238-0.375,0.476-0.42,0.709c-0.047,0.235,0.016,0.438,0.185,0.604c0.156,0.152,0.341,0.198,0.556,0.133
		c0.141-0.039,0.389-0.172,0.746-0.396l0.928-0.582c0.406-0.254,0.758-0.4,1.054-0.438c0.46-0.058,0.884,0.104,1.271,0.486
		c0.397,0.393,0.575,0.869,0.536,1.436c-0.04,0.563-0.336,1.125-0.887,1.685c-0.562,0.571-1.136,0.892-1.718,0.963
		c-0.58,0.071-1.098-0.116-1.551-0.563L121.618,122.366z"/>
	<path d="M122.098,115.749l0.783-0.975l1.97,1.584l-0.483-3.432l1.033-1.284l0.389,3.537l4.465,0.2l-1.027,1.279l-3.27-0.205
		l0.102,0.875l1.597,1.283l-0.782,0.975L122.098,115.749z"/>
	<path d="M133.273,109.766c0.151,0.646-0.009,1.336-0.479,2.07c-0.472,0.735-1.031,1.17-1.682,1.302
		c-0.824,0.207-1.699,0.014-2.624-0.578c-0.942-0.604-1.483-1.317-1.62-2.144c-0.152-0.646,0.008-1.336,0.479-2.07
		c0.471-0.735,1.03-1.17,1.681-1.301c0.807-0.217,1.68-0.022,2.622,0.582C132.575,108.219,133.116,108.932,133.273,109.766z
		 M132.053,109.934c-0.152-0.449-0.518-0.857-1.094-1.229c-0.574-0.369-1.099-0.529-1.571-0.48
		c-0.474,0.049-0.847,0.283-1.117,0.708c-0.271,0.424-0.332,0.862-0.183,1.313c0.15,0.453,0.516,0.864,1.092,1.233
		c0.576,0.37,1.102,0.528,1.576,0.478c0.474-0.051,0.847-0.291,1.119-0.715C132.146,110.819,132.206,110.383,132.053,109.934z"/>
	<path d="M129.695,104.815l0.579-1.143l4.486,2.277l1.371-2.703l0.977,0.494l-1.952,3.846L129.695,104.815z"/>
	<path d="M132.765,98.278l0.53-1.357l6.49,0.221l-0.505,1.289l-1.31-0.083l-0.82,2.1l1.016,0.839l-0.492,1.256L132.765,98.278z
		 M136.29,99.733l0.568-1.457l-2.527-0.16L136.29,99.733z"/>
	<path d="M137.782,90.629c0.208-0.125,0.44-0.153,0.697-0.088c0.256,0.065,0.447,0.205,0.572,0.414
		c0.126,0.211,0.154,0.443,0.089,0.699c-0.065,0.258-0.204,0.446-0.415,0.57c-0.212,0.124-0.445,0.152-0.702,0.087
		c-0.256-0.065-0.444-0.204-0.567-0.413c-0.123-0.21-0.15-0.443-0.086-0.699C137.437,90.944,137.575,90.754,137.782,90.629z"/>
</g>
</svg>
